# MagicaVoxel @ Ephtracy

# group
o 

# material
mtllib Monster.mtl
usemtl palette

# normals
vn -1 0 0
vn 1 0 0
vn 0 0 1
vn 0 0 -1
vn 0 -1 0
vn 0 1 0

# texcoords
vt 0.00976562 0.5
vt 0.373047 0.5
vt 0.845703 0.5
vt 0.958984 0.5
vt 0.994141 0.5

# verts
v -0.5 0 0.4
v -0.5 0 -0.3
v -0.5 0.4 0.4
v -0.5 0.4 -0.1
v -0.5 0.5 0.4
v -0.5 0.5 0.3
v -0.5 0.5 0.2
v -0.5 0.5 0.1
v -0.5 0.5 0
v -0.5 0.5 -0.1
v -0.5 0.6 0.4
v -0.5 0.6 0.3
v -0.5 0.6 0.2
v -0.5 0.6 0.1
v -0.5 0.6 0
v -0.5 0.7 0.4
v -0.5 0.7 0.3
v -0.5 0.7 -0.2
v -0.5 0.7 -0.3
v -0.5 0.8 0.3
v -0.5 0.8 -0.2
v -0.4 0.7 0.4
v -0.4 0.7 0.3
v -0.4 0.8 0.4
v -0.4 0.8 0.3
v -0.3 0.5 0.4
v -0.3 0.5 0.3
v -0.3 0.6 0.4
v -0.3 0.6 0.3
v -0.2 0.1 0
v -0.2 0.1 -0.1
v -0.2 0.2 0.5
v -0.2 0.2 0.4
v -0.2 0.4 0.4
v -0.2 0.4 0.3
v -0.2 0.4 0.2
v -0.2 0.5 0.5
v -0.2 0.5 0.4
v -0.2 0.5 0.3
v -0.2 0.5 0.2
v -0.2 0.5 0
v -0.2 0.5 -0.1
v -0.2 0.6 0.3
v -0.2 0.6 0
v -0.2 0.8 0.4
v -0.2 0.8 0.2
v -0.2 0.9 0.3
v -0.2 0.9 0.2
v -0.2 1 0.4
v -0.2 1 0.3
v -0.1 0.1 0.5
v -0.1 0.1 0.4
v -0.1 0.2 0.5
v -0.1 0.2 0.4
v -0.1 0.5 0.4
v -0.1 0.5 0.3
v -0.1 0.6 0.4
v -0.1 0.6 0.3
v 0.1 0.5 0.4
v 0.1 0.5 0.3
v 0.1 0.6 0.4
v 0.1 0.6 0.3
v 0.3 0.1 0.3
v 0.3 0.1 -0.1
v 0.3 0.4 0.3
v 0.3 0.4 -0.1
v 0.3 0.5 0.4
v 0.3 0.5 0.3
v 0.3 0.5 0.2
v 0.3 0.5 0.1
v 0.3 0.6 0.4
v 0.3 0.6 0.3
v 0.3 0.6 0.2
v 0.3 0.6 0.1
v -0.4 0.1 0.3
v -0.4 0.1 -0.1
v -0.4 0.4 0.3
v -0.4 0.4 -0.1
v -0.4 0.5 0.4
v -0.4 0.5 0.3
v -0.4 0.5 0.2
v -0.4 0.5 0.1
v -0.4 0.6 0.4
v -0.4 0.6 0.3
v -0.4 0.6 0.2
v -0.4 0.6 0.1
v -0.2 0.5 0.4
v -0.2 0.5 0.3
v -0.2 0.6 0.4
v -0.2 0.6 0.3
v 0 0.1 0.5
v 0 0.1 0.4
v 0 0.2 0.5
v 0 0.2 0.4
v 0 0.5 0.4
v 0 0.5 0.3
v 0 0.6 0.4
v 0 0.6 0.3
v 0.1 0.1 0
v 0.1 0.1 -0.1
v 0.1 0.2 0.5
v 0.1 0.2 0.4
v 0.1 0.4 0.4
v 0.1 0.4 0.3
v 0.1 0.4 0.2
v 0.1 0.5 0.5
v 0.1 0.5 0.4
v 0.1 0.5 0.3
v 0.1 0.5 0.2
v 0.1 0.5 0
v 0.1 0.5 -0.1
v 0.1 0.6 0.3
v 0.1 0.6 0
v 0.1 0.8 0.4
v 0.1 0.8 0.2
v 0.1 0.9 0.3
v 0.1 0.9 0.2
v 0.1 1 0.4
v 0.1 1 0.3
v 0.2 0.5 0.4
v 0.2 0.5 0.3
v 0.2 0.6 0.4
v 0.2 0.6 0.3
v 0.3 0.7 0.4
v 0.3 0.7 0.3
v 0.3 0.8 0.4
v 0.3 0.8 0.3
v 0.4 0 0.4
v 0.4 0 -0.3
v 0.4 0.4 0.4
v 0.4 0.4 -0.1
v 0.4 0.5 0.4
v 0.4 0.5 0.3
v 0.4 0.5 0.2
v 0.4 0.5 0.1
v 0.4 0.5 0
v 0.4 0.5 -0.1
v 0.4 0.6 0.4
v 0.4 0.6 0.3
v 0.4 0.6 0.2
v 0.4 0.6 0.1
v 0.4 0.6 0
v 0.4 0.7 0.4
v 0.4 0.7 0.3
v 0.4 0.7 -0.2
v 0.4 0.7 -0.3
v 0.4 0.8 0.3
v 0.4 0.8 -0.2
v -0.2 0.2 0.5
v -0.2 0.5 0.5
v -0.1 0.1 0.5
v -0.1 0.2 0.5
v 0 0.1 0.5
v 0 0.2 0.5
v 0.1 0.2 0.5
v 0.1 0.5 0.5
v -0.5 0 0.4
v -0.5 0.4 0.4
v -0.5 0.5 0.4
v -0.5 0.6 0.4
v -0.5 0.7 0.4
v -0.4 0 0.4
v -0.4 0.4 0.4
v -0.4 0.5 0.4
v -0.4 0.6 0.4
v -0.4 0.7 0.4
v -0.4 0.8 0.4
v -0.3 0 0.4
v -0.3 0.4 0.4
v -0.3 0.5 0.4
v -0.3 0.6 0.4
v -0.3 0.8 0.4
v -0.2 0.2 0.4
v -0.2 0.4 0.4
v -0.2 0.5 0.4
v -0.2 0.6 0.4
v -0.2 0.7 0.4
v -0.2 0.8 0.4
v -0.2 1 0.4
v -0.1 0.1 0.4
v -0.1 0.2 0.4
v -0.1 0.5 0.4
v -0.1 0.6 0.4
v -0.1 0.8 0.4
v -0.1 0.9 0.4
v 0 0.1 0.4
v 0 0.2 0.4
v 0 0.5 0.4
v 0 0.6 0.4
v 0 0.8 0.4
v 0 0.9 0.4
v 0.1 0.2 0.4
v 0.1 0.4 0.4
v 0.1 0.5 0.4
v 0.1 0.6 0.4
v 0.1 0.7 0.4
v 0.1 0.8 0.4
v 0.1 1 0.4
v 0.2 0 0.4
v 0.2 0.4 0.4
v 0.2 0.5 0.4
v 0.2 0.6 0.4
v 0.2 0.8 0.4
v 0.3 0 0.4
v 0.3 0.4 0.4
v 0.3 0.5 0.4
v 0.3 0.6 0.4
v 0.3 0.7 0.4
v 0.3 0.8 0.4
v 0.4 0 0.4
v 0.4 0.4 0.4
v 0.4 0.5 0.4
v 0.4 0.6 0.4
v 0.4 0.7 0.4
v -0.5 0.7 0.3
v -0.5 0.8 0.3
v -0.4 0.7 0.3
v -0.4 0.8 0.3
v -0.2 0.5 0.3
v -0.2 0.6 0.3
v -0.1 0.5 0.3
v -0.1 0.6 0.3
v 0 0.5 0.3
v 0 0.6 0.3
v 0.1 0.5 0.3
v 0.1 0.6 0.3
v 0.3 0.7 0.3
v 0.3 0.8 0.3
v 0.4 0.7 0.3
v 0.4 0.8 0.3
v -0.5 0.5 0.2
v -0.5 0.6 0.2
v -0.4 0.5 0.2
v -0.4 0.6 0.2
v 0.3 0.5 0.2
v 0.3 0.6 0.2
v 0.4 0.5 0.2
v 0.4 0.6 0.2
v -0.5 0.5 0
v -0.5 0.6 0
v -0.2 0.1 0
v -0.2 0.5 0
v -0.2 0.6 0
v 0.1 0.1 0
v 0.1 0.5 0
v 0.1 0.6 0
v 0.4 0.5 0
v 0.4 0.6 0
v -0.5 0.4 -0.1
v -0.5 0.5 -0.1
v -0.4 0.1 -0.1
v -0.4 0.4 -0.1
v -0.2 0.1 -0.1
v -0.2 0.5 -0.1
v 0.1 0.1 -0.1
v 0.1 0.5 -0.1
v 0.3 0.1 -0.1
v 0.3 0.4 -0.1
v 0.4 0.4 -0.1
v 0.4 0.5 -0.1
v -0.5 0.5 0.3
v -0.5 0.6 0.3
v -0.4 0.1 0.3
v -0.4 0.4 0.3
v -0.4 0.5 0.3
v -0.4 0.6 0.3
v -0.3 0.1 0.3
v -0.3 0.4 0.3
v -0.3 0.5 0.3
v -0.3 0.6 0.3
v -0.2 0.3 0.3
v -0.2 0.4 0.3
v -0.2 0.5 0.3
v -0.2 0.6 0.3
v -0.2 0.9 0.3
v -0.2 1 0.3
v 0.1 0.3 0.3
v 0.1 0.4 0.3
v 0.1 0.5 0.3
v 0.1 0.6 0.3
v 0.1 0.9 0.3
v 0.1 1 0.3
v 0.2 0.1 0.3
v 0.2 0.4 0.3
v 0.2 0.5 0.3
v 0.2 0.6 0.3
v 0.3 0.1 0.3
v 0.3 0.4 0.3
v 0.3 0.5 0.3
v 0.3 0.6 0.3
v 0.4 0.5 0.3
v 0.4 0.6 0.3
v -0.2 0.4 0.2
v -0.2 0.5 0.2
v -0.2 0.8 0.2
v -0.2 0.9 0.2
v 0.1 0.4 0.2
v 0.1 0.5 0.2
v 0.1 0.8 0.2
v 0.1 0.9 0.2
v -0.5 0.5 0.1
v -0.5 0.6 0.1
v -0.4 0.5 0.1
v -0.4 0.6 0.1
v 0.3 0.5 0.1
v 0.3 0.6 0.1
v 0.4 0.5 0.1
v 0.4 0.6 0.1
v -0.5 0.7 -0.2
v -0.5 0.8 -0.2
v -0.4 0.7 -0.2
v -0.4 0.8 -0.2
v -0.3 0.7 -0.2
v -0.3 0.8 -0.2
v 0.2 0.7 -0.2
v 0.2 0.8 -0.2
v 0.3 0.7 -0.2
v 0.3 0.8 -0.2
v 0.4 0.7 -0.2
v 0.4 0.8 -0.2
v -0.5 0 -0.3
v -0.5 0.7 -0.3
v -0.4 0 -0.3
v -0.4 0.7 -0.3
v -0.3 0 -0.3
v -0.3 0.7 -0.3
v 0.2 0 -0.3
v 0.2 0.7 -0.3
v 0.3 0 -0.3
v 0.3 0.7 -0.3
v 0.4 0 -0.3
v 0.4 0.7 -0.3
v -0.5 0 0.4
v -0.4 0 0.4
v -0.3 0 0.4
v 0.2 0 0.4
v 0.3 0 0.4
v 0.4 0 0.4
v -0.4 0 0.3
v -0.3 0 0.3
v 0.2 0 0.3
v 0.3 0 0.3
v -0.4 0 -0.2
v -0.3 0 -0.2
v 0.2 0 -0.2
v 0.3 0 -0.2
v -0.5 0 -0.3
v -0.4 0 -0.3
v -0.3 0 -0.3
v 0.2 0 -0.3
v 0.3 0 -0.3
v 0.4 0 -0.3
v -0.1 0.1 0.5
v 0 0.1 0.5
v -0.1 0.1 0.4
v 0 0.1 0.4
v -0.2 0.2 0.5
v -0.1 0.2 0.5
v 0 0.2 0.5
v 0.1 0.2 0.5
v -0.2 0.2 0.4
v -0.1 0.2 0.4
v 0 0.2 0.4
v 0.1 0.2 0.4
v -0.2 0.4 0.3
v 0.1 0.4 0.3
v -0.2 0.4 0.2
v 0.1 0.4 0.2
v -0.5 0.5 0.4
v -0.4 0.5 0.4
v -0.3 0.5 0.4
v -0.2 0.5 0.4
v 0.1 0.5 0.4
v 0.2 0.5 0.4
v 0.3 0.5 0.4
v 0.4 0.5 0.4
v -0.5 0.5 0.3
v -0.4 0.5 0.3
v -0.3 0.5 0.3
v -0.2 0.5 0.3
v 0.1 0.5 0.3
v 0.2 0.5 0.3
v 0.3 0.5 0.3
v 0.4 0.5 0.3
v -0.5 0.5 0.2
v -0.4 0.5 0.2
v -0.2 0.5 0.2
v 0.1 0.5 0.2
v 0.3 0.5 0.2
v 0.4 0.5 0.2
v -0.5 0.5 0.1
v -0.4 0.5 0.1
v 0.3 0.5 0.1
v 0.4 0.5 0.1
v -0.5 0.5 0
v -0.2 0.5 0
v 0.1 0.5 0
v 0.4 0.5 0
v -0.5 0.5 -0.1
v -0.2 0.5 -0.1
v 0.1 0.5 -0.1
v 0.4 0.5 -0.1
v -0.4 0.6 0.4
v -0.3 0.6 0.4
v -0.2 0.6 0.4
v -0.1 0.6 0.4
v 0 0.6 0.4
v 0.1 0.6 0.4
v 0.2 0.6 0.4
v 0.3 0.6 0.4
v -0.5 0.6 0.3
v -0.4 0.6 0.3
v -0.3 0.6 0.3
v -0.2 0.6 0.3
v -0.1 0.6 0.3
v 0 0.6 0.3
v 0.1 0.6 0.3
v 0.2 0.6 0.3
v 0.3 0.6 0.3
v 0.4 0.6 0.3
v -0.5 0.6 0.2
v -0.4 0.6 0.2
v 0.3 0.6 0.2
v 0.4 0.6 0.2
v -0.5 0.6 0.1
v -0.4 0.6 0.1
v 0.3 0.6 0.1
v 0.4 0.6 0.1
v -0.5 0.6 0
v -0.2 0.6 0
v 0.1 0.6 0
v 0.4 0.6 0
v -0.4 0.1 0.3
v -0.3 0.1 0.3
v 0.2 0.1 0.3
v 0.3 0.1 0.3
v -0.2 0.1 0
v 0.1 0.1 0
v -0.4 0.1 -0.1
v -0.2 0.1 -0.1
v 0.1 0.1 -0.1
v 0.3 0.1 -0.1
v -0.5 0.4 0.4
v -0.4 0.4 0.4
v -0.3 0.4 0.4
v -0.2 0.4 0.4
v 0.1 0.4 0.4
v 0.2 0.4 0.4
v 0.3 0.4 0.4
v 0.4 0.4 0.4
v -0.4 0.4 0.3
v -0.3 0.4 0.3
v -0.2 0.4 0.3
v 0.1 0.4 0.3
v 0.2 0.4 0.3
v 0.3 0.4 0.3
v -0.5 0.4 -0.1
v -0.4 0.4 -0.1
v 0.3 0.4 -0.1
v 0.4 0.4 -0.1
v -0.2 0.5 0.5
v 0.1 0.5 0.5
v -0.2 0.5 0.4
v -0.1 0.5 0.4
v 0 0.5 0.4
v 0.1 0.5 0.4
v -0.2 0.5 0.3
v -0.1 0.5 0.3
v 0 0.5 0.3
v 0.1 0.5 0.3
v -0.5 0.7 0.4
v -0.4 0.7 0.4
v 0.3 0.7 0.4
v 0.4 0.7 0.4
v -0.5 0.7 0.3
v -0.4 0.7 0.3
v 0.3 0.7 0.3
v 0.4 0.7 0.3
v -0.5 0.7 -0.2
v -0.4 0.7 -0.2
v -0.3 0.7 -0.2
v 0.2 0.7 -0.2
v 0.3 0.7 -0.2
v 0.4 0.7 -0.2
v -0.5 0.7 -0.3
v -0.4 0.7 -0.3
v -0.3 0.7 -0.3
v 0.2 0.7 -0.3
v 0.3 0.7 -0.3
v 0.4 0.7 -0.3
v -0.4 0.8 0.4
v -0.3 0.8 0.4
v -0.2 0.8 0.4
v 0.1 0.8 0.4
v 0.2 0.8 0.4
v 0.3 0.8 0.4
v -0.5 0.8 0.3
v -0.4 0.8 0.3
v 0.3 0.8 0.3
v 0.4 0.8 0.3
v -0.2 0.8 0.2
v 0.1 0.8 0.2
v -0.5 0.8 -0.2
v -0.4 0.8 -0.2
v -0.3 0.8 -0.2
v 0.2 0.8 -0.2
v 0.3 0.8 -0.2
v 0.4 0.8 -0.2
v -0.2 0.9 0.3
v 0.1 0.9 0.3
v -0.2 0.9 0.2
v 0.1 0.9 0.2
v -0.2 1 0.4
v 0.1 1 0.4
v -0.2 1 0.3
v 0.1 1 0.3

# faces
f 3/2/1 2/2/1 1/2/1
f 4/2/1 2/2/1 3/2/1
f 10/2/1 2/2/1 4/2/1
f 11/4/1 6/4/1 5/4/1
f 12/4/1 6/4/1 11/4/1
f 13/4/1 8/4/1 7/4/1
f 14/4/1 8/4/1 13/4/1
f 15/2/1 10/2/1 9/2/1
f 16/2/1 12/2/1 11/2/1
f 16/2/1 15/2/1 14/2/1
f 16/2/1 14/2/1 13/2/1
f 16/2/1 13/2/1 12/2/1
f 17/2/1 15/2/1 16/2/1
f 18/2/1 10/2/1 15/2/1
f 18/2/1 15/2/1 17/2/1
f 18/2/1 2/2/1 10/2/1
f 19/2/1 2/2/1 18/2/1
f 20/2/1 18/2/1 17/2/1
f 21/2/1 18/2/1 20/2/1
f 24/1/1 23/1/1 22/1/1
f 25/1/1 23/1/1 24/1/1
f 28/4/1 27/4/1 26/4/1
f 29/4/1 27/4/1 28/4/1
f 34/3/1 33/3/1 32/3/1
f 37/3/1 34/3/1 32/3/1
f 37/3/1 36/3/1 35/3/1
f 37/3/1 35/3/1 34/3/1
f 38/3/1 36/3/1 37/3/1
f 39/3/1 36/3/1 38/3/1
f 40/3/1 36/3/1 39/3/1
f 41/3/1 31/3/1 30/3/1
f 42/3/1 31/3/1 41/3/1
f 43/3/1 40/3/1 39/3/1
f 43/3/1 41/3/1 40/3/1
f 44/3/1 41/3/1 43/3/1
f 47/4/1 46/4/1 45/4/1
f 48/4/1 46/4/1 47/4/1
f 49/4/1 47/4/1 45/4/1
f 50/4/1 47/4/1 49/4/1
f 53/3/1 52/3/1 51/3/1
f 54/3/1 52/3/1 53/3/1
f 57/4/1 56/4/1 55/4/1
f 58/4/1 56/4/1 57/4/1
f 61/4/1 60/4/1 59/4/1
f 62/4/1 60/4/1 61/4/1
f 65/2/1 64/2/1 63/2/1
f 66/2/1 64/2/1 65/2/1
f 71/4/1 68/4/1 67/4/1
f 72/4/1 68/4/1 71/4/1
f 73/4/1 70/4/1 69/4/1
f 74/4/1 70/4/1 73/4/1
f 75/2/2 76/2/2 77/2/2
f 77/2/2 76/2/2 78/2/2
f 79/4/2 80/4/2 83/4/2
f 83/4/2 80/4/2 84/4/2
f 81/4/2 82/4/2 85/4/2
f 85/4/2 82/4/2 86/4/2
f 87/4/2 88/4/2 89/4/2
f 89/4/2 88/4/2 90/4/2
f 91/3/2 92/3/2 93/3/2
f 93/3/2 92/3/2 94/3/2
f 95/4/2 96/4/2 97/4/2
f 97/4/2 96/4/2 98/4/2
f 101/3/2 102/3/2 103/3/2
f 101/3/2 103/3/2 106/3/2
f 104/3/2 105/3/2 106/3/2
f 103/3/2 104/3/2 106/3/2
f 106/3/2 105/3/2 107/3/2
f 107/3/2 105/3/2 108/3/2
f 108/3/2 105/3/2 109/3/2
f 99/3/2 100/3/2 110/3/2
f 110/3/2 100/3/2 111/3/2
f 108/3/2 109/3/2 112/3/2
f 109/3/2 110/3/2 112/3/2
f 112/3/2 110/3/2 113/3/2
f 114/4/2 115/4/2 116/4/2
f 116/4/2 115/4/2 117/4/2
f 114/4/2 116/4/2 118/4/2
f 118/4/2 116/4/2 119/4/2
f 120/4/2 121/4/2 122/4/2
f 122/4/2 121/4/2 123/4/2
f 124/1/2 125/1/2 126/1/2
f 126/1/2 125/1/2 127/1/2
f 128/2/2 129/2/2 130/2/2
f 130/2/2 129/2/2 131/2/2
f 131/2/2 129/2/2 137/2/2
f 132/4/2 133/4/2 138/4/2
f 138/4/2 133/4/2 139/4/2
f 134/4/2 135/4/2 140/4/2
f 140/4/2 135/4/2 141/4/2
f 136/2/2 137/2/2 142/2/2
f 138/2/2 139/2/2 143/2/2
f 141/2/2 142/2/2 143/2/2
f 140/2/2 141/2/2 143/2/2
f 139/2/2 140/2/2 143/2/2
f 143/2/2 142/2/2 144/2/2
f 142/2/2 137/2/2 145/2/2
f 144/2/2 142/2/2 145/2/2
f 137/2/2 129/2/2 145/2/2
f 145/2/2 129/2/2 146/2/2
f 144/2/2 145/2/2 147/2/2
f 147/2/2 145/2/2 148/2/2
f 152/3/3 150/3/3 149/3/3
f 153/3/3 152/3/3 151/3/3
f 154/3/3 150/3/3 152/3/3
f 154/3/3 152/3/3 153/3/3
f 155/3/3 150/3/3 154/3/3
f 156/3/3 150/3/3 155/3/3
f 162/2/3 158/2/3 157/2/3
f 163/2/3 158/2/3 162/2/3
f 164/4/3 160/4/3 159/4/3
f 165/2/3 161/2/3 160/2/3
f 165/4/3 160/4/3 164/4/3
f 166/2/3 161/2/3 165/2/3
f 168/1/3 163/1/3 162/1/3
f 169/1/3 163/1/3 168/1/3
f 171/1/3 167/1/3 166/1/3
f 171/1/3 166/1/3 165/1/3
f 172/1/3 167/1/3 171/1/3
f 173/2/3 169/2/3 168/2/3
f 174/2/3 169/2/3 173/2/3
f 175/4/3 171/4/3 170/4/3
f 176/2/3 172/2/3 171/2/3
f 176/4/3 171/4/3 175/4/3
f 177/2/3 172/2/3 176/2/3
f 178/2/3 172/2/3 177/2/3
f 180/2/3 173/2/3 168/2/3
f 181/2/3 173/2/3 180/2/3
f 183/2/3 177/2/3 176/2/3
f 184/4/3 178/4/3 177/4/3
f 184/4/3 179/4/3 178/4/3
f 185/4/3 179/4/3 184/4/3
f 186/2/3 180/2/3 168/2/3
f 188/4/3 183/4/3 182/4/3
f 189/2/3 177/2/3 183/2/3
f 189/4/3 183/4/3 188/4/3
f 190/5/3 185/5/3 184/5/3
f 190/4/3 184/4/3 177/4/3
f 191/4/3 179/4/3 185/4/3
f 191/5/3 185/5/3 190/5/3
f 192/2/3 187/2/3 186/2/3
f 195/2/3 177/2/3 189/2/3
f 196/4/3 190/4/3 177/4/3
f 196/4/3 191/4/3 190/4/3
f 196/2/3 177/2/3 195/2/3
f 197/4/3 191/4/3 196/4/3
f 198/4/3 179/4/3 191/4/3
f 198/4/3 191/4/3 197/4/3
f 199/2/3 193/2/3 192/2/3
f 199/2/3 186/2/3 168/2/3
f 199/2/3 192/2/3 186/2/3
f 200/2/3 193/2/3 199/2/3
f 201/4/3 195/4/3 194/4/3
f 202/2/3 197/2/3 196/2/3
f 202/4/3 195/4/3 201/4/3
f 202/2/3 196/2/3 195/2/3
f 203/2/3 197/2/3 202/2/3
f 204/1/3 200/1/3 199/1/3
f 205/1/3 200/1/3 204/1/3
f 207/1/3 203/1/3 202/1/3
f 208/1/3 203/1/3 207/1/3
f 209/1/3 203/1/3 208/1/3
f 210/2/3 205/2/3 204/2/3
f 211/2/3 205/2/3 210/2/3
f 212/4/3 207/4/3 206/4/3
f 213/2/3 208/2/3 207/2/3
f 213/4/3 207/4/3 212/4/3
f 214/2/3 208/2/3 213/2/3
f 217/2/3 216/2/3 215/2/3
f 218/2/3 216/2/3 217/2/3
f 221/3/3 220/3/3 219/3/3
f 222/3/3 220/3/3 221/3/3
f 225/3/3 224/3/3 223/3/3
f 226/3/3 224/3/3 225/3/3
f 229/2/3 228/2/3 227/2/3
f 230/2/3 228/2/3 229/2/3
f 233/4/3 232/4/3 231/4/3
f 234/4/3 232/4/3 233/4/3
f 237/4/3 236/4/3 235/4/3
f 238/4/3 236/4/3 237/4/3
f 242/2/3 240/2/3 239/2/3
f 243/2/3 240/2/3 242/2/3
f 244/3/3 242/3/3 241/3/3
f 245/3/3 242/3/3 244/3/3
f 247/2/3 246/2/3 245/2/3
f 248/2/3 246/2/3 247/2/3
f 252/2/3 250/2/3 249/2/3
f 253/2/3 252/2/3 251/2/3
f 254/2/3 250/2/3 252/2/3
f 254/2/3 252/2/3 253/2/3
f 257/2/3 256/2/3 255/2/3
f 258/2/3 256/2/3 257/2/3
f 259/2/3 256/2/3 258/2/3
f 260/2/3 256/2/3 259/2/3
f 261/4/4 262/4/4 265/4/4
f 265/4/4 262/4/4 266/4/4
f 263/1/4 264/1/4 267/1/4
f 267/1/4 264/1/4 268/1/4
f 267/2/4 268/2/4 271/2/4
f 271/2/4 268/2/4 272/2/4
f 269/4/4 270/4/4 273/4/4
f 273/4/4 270/4/4 274/4/4
f 271/3/4 272/3/4 277/3/4
f 267/2/4 271/2/4 277/2/4
f 277/3/4 272/3/4 278/3/4
f 275/4/4 276/4/4 281/4/4
f 281/4/4 276/4/4 282/4/4
f 267/2/4 277/2/4 283/2/4
f 277/2/4 278/2/4 283/2/4
f 283/2/4 278/2/4 284/2/4
f 279/4/4 280/4/4 285/4/4
f 285/4/4 280/4/4 286/4/4
f 283/1/4 284/1/4 287/1/4
f 287/1/4 284/1/4 288/1/4
f 289/4/4 290/4/4 291/4/4
f 291/4/4 290/4/4 292/4/4
f 293/3/4 294/3/4 297/3/4
f 297/3/4 294/3/4 298/3/4
f 295/4/4 296/4/4 299/4/4
f 299/4/4 296/4/4 300/4/4
f 301/4/4 302/4/4 303/4/4
f 303/4/4 302/4/4 304/4/4
f 305/4/4 306/4/4 307/4/4
f 307/4/4 306/4/4 308/4/4
f 309/2/4 310/2/4 311/2/4
f 311/2/4 310/2/4 312/2/4
f 311/1/4 312/1/4 313/1/4
f 313/1/4 312/1/4 314/1/4
f 313/2/4 314/2/4 315/2/4
f 315/2/4 314/2/4 316/2/4
f 315/1/4 316/1/4 317/1/4
f 317/1/4 316/1/4 318/1/4
f 317/2/4 318/2/4 319/2/4
f 319/2/4 318/2/4 320/2/4
f 321/2/4 322/2/4 323/2/4
f 323/2/4 322/2/4 324/2/4
f 323/1/4 324/1/4 325/1/4
f 325/1/4 324/1/4 326/1/4
f 325/2/4 326/2/4 327/2/4
f 327/2/4 326/2/4 328/2/4
f 327/1/4 328/1/4 329/1/4
f 329/1/4 328/1/4 330/1/4
f 329/2/4 330/2/4 331/2/4
f 331/2/4 330/2/4 332/2/4
f 339/2/5 334/2/5 333/2/5
f 339/1/5 335/1/5 334/1/5
f 340/2/5 336/2/5 335/2/5
f 340/1/5 335/1/5 339/1/5
f 341/1/5 337/1/5 336/1/5
f 341/2/5 336/2/5 340/2/5
f 342/2/5 338/2/5 337/2/5
f 342/1/5 337/1/5 341/1/5
f 343/2/5 341/2/5 340/2/5
f 343/2/5 340/2/5 339/2/5
f 343/2/5 342/2/5 341/2/5
f 343/2/5 339/2/5 333/2/5
f 344/2/5 342/2/5 343/2/5
f 345/2/5 342/2/5 344/2/5
f 346/2/5 338/2/5 342/2/5
f 346/2/5 342/2/5 345/2/5
f 347/2/5 343/2/5 333/2/5
f 348/1/5 344/1/5 343/1/5
f 348/2/5 343/2/5 347/2/5
f 349/2/5 345/2/5 344/2/5
f 349/1/5 344/1/5 348/1/5
f 350/1/5 346/1/5 345/1/5
f 350/2/5 345/2/5 349/2/5
f 351/2/5 338/2/5 346/2/5
f 351/1/5 346/1/5 350/1/5
f 352/2/5 338/2/5 351/2/5
f 355/3/5 354/3/5 353/3/5
f 356/3/5 354/3/5 355/3/5
f 361/3/5 358/3/5 357/3/5
f 362/3/5 358/3/5 361/3/5
f 363/3/5 360/3/5 359/3/5
f 364/3/5 360/3/5 363/3/5
f 367/3/5 366/3/5 365/3/5
f 368/3/5 366/3/5 367/3/5
f 377/4/5 370/4/5 369/4/5
f 378/4/5 370/4/5 377/4/5
f 379/4/5 372/4/5 371/4/5
f 380/4/5 372/4/5 379/4/5
f 381/4/5 374/4/5 373/4/5
f 382/4/5 374/4/5 381/4/5
f 383/4/5 376/4/5 375/4/5
f 384/4/5 376/4/5 383/4/5
f 391/4/5 386/4/5 385/4/5
f 392/4/5 386/4/5 391/4/5
f 393/4/5 390/4/5 389/4/5
f 394/4/5 390/4/5 393/4/5
f 396/3/5 388/3/5 387/3/5
f 397/3/5 388/3/5 396/3/5
f 399/2/5 396/2/5 395/2/5
f 400/2/5 396/2/5 399/2/5
f 401/2/5 398/2/5 397/2/5
f 402/2/5 398/2/5 401/2/5
f 412/1/5 404/1/5 403/1/5
f 413/1/5 404/1/5 412/1/5
f 414/2/5 406/2/5 405/2/5
f 415/2/5 406/2/5 414/2/5
f 416/2/5 408/2/5 407/2/5
f 417/2/5 408/2/5 416/2/5
f 418/1/5 410/1/5 409/1/5
f 419/1/5 410/1/5 418/1/5
f 421/2/5 413/2/5 412/2/5
f 421/2/5 412/2/5 411/2/5
f 421/2/5 414/2/5 413/2/5
f 422/2/5 414/2/5 421/2/5
f 423/2/5 420/2/5 419/2/5
f 423/2/5 419/2/5 418/2/5
f 423/2/5 418/2/5 417/2/5
f 424/2/5 420/2/5 423/2/5
f 426/2/5 414/2/5 422/2/5
f 427/2/5 423/2/5 417/2/5
f 429/2/5 426/2/5 425/2/5
f 430/2/5 414/2/5 426/2/5
f 430/2/5 426/2/5 429/2/5
f 431/2/5 428/2/5 427/2/5
f 431/2/5 427/2/5 417/2/5
f 432/2/5 428/2/5 431/2/5
f 433/2/6 434/2/6 437/2/6
f 435/2/6 436/2/6 437/2/6
f 434/2/6 435/2/6 437/2/6
f 437/2/6 436/2/6 438/2/6
f 433/2/6 437/2/6 439/2/6
f 439/2/6 437/2/6 440/2/6
f 438/2/6 436/2/6 441/2/6
f 441/2/6 436/2/6 442/2/6
f 443/2/6 444/2/6 451/2/6
f 444/1/6 445/1/6 451/1/6
f 445/2/6 446/2/6 452/2/6
f 451/1/6 445/1/6 452/1/6
f 452/2/6 446/2/6 453/2/6
f 447/2/6 448/2/6 454/2/6
f 448/1/6 449/1/6 455/1/6
f 454/2/6 448/2/6 455/2/6
f 449/2/6 450/2/6 456/2/6
f 455/1/6 449/1/6 456/1/6
f 443/2/6 451/2/6 457/2/6
f 457/2/6 451/2/6 458/2/6
f 456/2/6 450/2/6 459/2/6
f 459/2/6 450/2/6 460/2/6
f 461/3/6 462/3/6 463/3/6
f 463/3/6 462/3/6 464/3/6
f 464/3/6 462/3/6 465/3/6
f 465/3/6 462/3/6 466/3/6
f 463/3/6 464/3/6 467/3/6
f 467/3/6 464/3/6 468/3/6
f 465/3/6 466/3/6 469/3/6
f 469/3/6 466/3/6 470/3/6
f 471/2/6 472/2/6 475/2/6
f 475/2/6 472/2/6 476/2/6
f 473/2/6 474/2/6 477/2/6
f 477/2/6 474/2/6 478/2/6
f 479/2/6 480/2/6 485/2/6
f 480/1/6 481/1/6 486/1/6
f 485/2/6 480/2/6 486/2/6
f 481/2/6 482/2/6 487/2/6
f 486/1/6 481/1/6 487/1/6
f 482/1/6 483/1/6 488/1/6
f 487/2/6 482/2/6 488/2/6
f 483/2/6 484/2/6 489/2/6
f 488/1/6 483/1/6 489/1/6
f 489/2/6 484/2/6 490/2/6
f 491/1/6 492/1/6 498/1/6
f 495/1/6 496/1/6 499/1/6
f 492/2/6 493/2/6 501/2/6
f 494/2/6 495/2/6 502/2/6
f 497/2/6 498/2/6 503/2/6
f 498/1/6 492/1/6 504/1/6
f 503/2/6 498/2/6 504/2/6
f 501/2/6 502/2/6 505/2/6
f 504/1/6 492/1/6 505/1/6
f 492/2/6 501/2/6 505/2/6
f 502/2/6 495/2/6 506/2/6
f 505/2/6 502/2/6 506/2/6
f 495/1/6 499/1/6 506/1/6
f 499/2/6 500/2/6 507/2/6
f 506/1/6 499/1/6 507/1/6
f 507/2/6 500/2/6 508/2/6
f 509/4/6 510/4/6 511/4/6
f 511/4/6 510/4/6 512/4/6
f 513/4/6 514/4/6 515/4/6
f 515/4/6 514/4/6 516/4/6
